<svg xmlns:svg="http://www.w3.org/2000/svg" xmlns="http://www.w3.org/2000/svg" viewBox="0 0 58.71 58.71" version="1.1" id="svg5780">
  <defs id="defs5774">
    <filter id="filter6389" x="-0.05" width="1.11" y="-0.07" height="1.13" color-interpolation-filters="sRGB">
      <feGaussianBlur stdDeviation="1.21" id="feGaussianBlur6391"/>
    </filter>
    <filter id="filter6419" x="-0.03" width="1.07" y="-0.22" height="1.44" color-interpolation-filters="sRGB">
      <feGaussianBlur stdDeviation="0.49" id="feGaussianBlur6421"/>
    </filter>
  </defs>
  <metadata id="metadata5777"/>
  <g id="layer1" transform="translate(-67.205177,-31.301369)">
    <g id="g6482" transform="translate(0,-4.5263984)">
      <path id="path6327-3" d="m96.56 87.12c-14.61 0-26.46-7.42-26.46-21.83 0-14.4 11.85-21.83 26.46-21.83 14.61 0 26.46 7.42 26.46 21.83 0 14.4-11.85 21.83-26.46 21.83z" style="fill-opacity:1;fill:#e6e7e8;filter:url(#filter6389)"/>
      <path id="path6327" d="m96.57 84.01c-14.61 0-26.46-7.42-26.46-21.83 0-14.4 11.85-21.83 26.46-21.83 14.61 0 26.46 7.42 26.46 21.83 0 14.4-11.85 21.83-26.46 21.83z" fill="#49d49d"/>
      <g id="g6471">
        <path d="m80.7 51.45c1.32 0 30.43 0 31.75 0 1.32 1.32 1.32 3.97 0 5.29-1.32 0-30.43 0-31.75 0-1.32-1.32-1.32-3.97 0-5.29z" id="rect6332-2" style="fill-opacity:0.49;fill:#e6e7e8;filter:url(#filter6419)"/>
        <path d="m80.7 50.28c1.32 0 30.43 0 31.75 0 1.32 1.32 1.32 3.97 0 5.29-1.32 0-30.43 0-31.75 0-1.32-1.32-1.32-3.97 0-5.29z" id="rect6332" fill="#c6ffcd"/>
        <path d="m80.7 60.71c1.32 0 30.43 0 31.75 0 1.32 1.32 1.32 3.97 0 5.29-1.32 0-30.43 0-31.75 0-1.32-1.32-1.32-3.97 0-5.29z" id="rect6332-2-9" style="fill-opacity:0.49;fill:#e6e7e8;filter:url(#filter6419)"/>
        <path d="m80.7 59.54c1.32 0 30.43 0 31.75 0 1.32 1.32 1.32 3.97 0 5.29-1.32 0-30.43 0-31.75 0-1.32-1.32-1.32-3.97 0-5.29z" id="rect6332-1" fill="#c6ffcd"/>
        <path d="m80.7 69.97c1.32 0 30.43 0 31.75 0 1.32 1.32 1.32 3.97 0 5.29-1.32 0-30.43 0-31.75 0-1.32-1.32-1.32-3.97 0-5.29z" id="rect6332-2-9-0" style="fill-opacity:0.49;fill:#e6e7e8;filter:url(#filter6419)"/>
        <path d="m80.7 68.8c1.32 0 30.43 0 31.75 0 1.32 1.32 1.32 3.97 0 5.29-1.32 0-30.43 0-31.75 0-1.32-1.32-1.32-3.97 0-5.29z" id="rect6332-1-6" fill="#c6ffcd"/>
      </g>
    </g>
  </g>
</svg>