<svg xmlns:svg="http://www.w3.org/2000/svg" xmlns="http://www.w3.org/2000/svg" version="1.1" id="unicorn-head" viewBox="0 0 60 62">
                    <metadata id="metadata40" />
                    <defs id="defs38" />
                    <path d="M0 0 4.4 5.9l1.4-1.6z" id="path2" fill="#f46c60" />
                    <path d="m7.1 9.5 2.3-2.5-4-3-1 1.9z" id="path4" fill="#ffe12c" />
                    <path d="m9.6 12.9 3.5-3.1-4-3-2 2.7z" id="path6" fill="#d3ff75" />
                    <path d="m12.1 16.2 5-3.4-4.2-3.1-3.3 3.3z" id="path8" fill="#59ffba" />
                    <path d="m14.4 19.3 6.5-3.7-4.1-3.1-4.8 3.6z" id="path10" fill="#75d6ff" />
                    <path d="m21 15.6-6.7 3.5 4.1 5.4 4.9-4.9 1.4-1.4z" id="path12" fill="#c28fef" />
                    <path d="m30.3 15.8c0 0 4.2-7.1 22.2-8.8-18.3-1.9-23.6 4.7-23.6 4.7 0 0 0.7 2.7 1.4 4.2zM29.1 16.8c0 0 9-6.3 25.1-5.2l-14.7 7.1c0 0 8.4 1.2 19.8 1.9l-11.9 3.9c0 0 4.2 2.6 11.8 5.1l-8 1.2c0 0 6.3 0.4 8.7 6.2l-5.5-0.4c0 0 2.5 5.9 5.5 9.3l-5.2-2.9c0 0 3 5.1 5.2 10.1l-5.4-1.6c2.5 5.9 4.8 8.4 4.8 8.4-13.6-4.2-30.2-43.2-30.2-43.2z" id="path14" fill="#e84d88" />
                    <path d="m27.4 18.4c0 0 11.9-5.4 28.7-1.6l-18.2 3.6c0 0 12.2 0.6 19.6 5.8l-11.7 0c0 0 7.3 1.7 10.6 7.1l-6.9-0.7c0 0 7.5 3.2 10.5 9.6l-7.3-3.8c0 0 5.8 3.1 5 13.4l-4.2-8.6c0 0 1.6 10.7 4.8 13.2l-4.4-0.1c2 2.2 3 5.9 3 5.9h-2.6z" id="path18" fill="#ff8fa8" />
                    <path d="m26.2 17c0 0-0.6-4.4 2.6-10.9 0 0 4.1 5.1 5.1 14.2z" id="path20" fill="#99a8ae" />
                    <path d="m8.4 51.9c1.5 1 5-3 9-3.7 15-2.8 12.2-8.6 12.2-8.6 4.1 5.1-2.2 19.1-5.8 22.4h30.4c-0.2-40-25.1-45.2-25.1-45.2-0.8-7.2-7-10.8-7-10.8-1.9 4.5-1 12.5-1 12.5-3.1 5.5-18.9 20.3-20.7 22.6-1.8 2.2 3.7 8.8 3.7 8.8 1.6 0.2 3.5 1.5 4.3 2.1z" id="path22" fill="#e6ebef" />
                    <path d="m13.1 50c0.8-0.6 2.7-1.8 5.6-2.4 2-0.4 3.9-1 5.7-1.8 1.8-0.8 3.4-1.9 4.4-3.6 0.9-1.6 0.9-3.7 0.2-5.5 1.1 1.6 1.5 3.9 0.5 5.9-0.9 2-2.8 3.3-4.7 4.1-1.9 0.9-3.9 1.4-6 1.7-2.5 0.4-4.8 1.2-5.8 1.6zm-8.9-6.2c-0.5 0.4-1.8 0.6-2.2 0.1-0.4-0.5 0.3-1.6 0.8-1.9a1.2 1.2 0 0 1 1.6 0.2 1.1 1.1 0 0 1-0.2 1.6zm9.7-2.7c-0.1 2.3-1.3 4.6-3.1 6.2a9.7 9.7 0 0 1-3.1 1.9 9.8 9.8 0 0 1-3.6 0.6c2.3-0.7 4.4-1.7 6-3.2 0.8-0.7 1.5-1.6 2.2-2.5 0.6-0.9 1.2-1.9 1.6-3z" id="path24" fill="#99a8ae" />
                    <path d="m14.4 33.1c0 0 0.9-0.7 1.7-0.5 0 0-1.1 1.1-0.3 2.9 0 0 0.9-2.1 2.5-2.2 0 0-1.1 1.5 0.3 2.9 0 0 0.3-2.1 2.3-2.8 0 0-0.3 1.1 0.7 2.5 0 0-0.3-1.9 1.1-2.9 1.4-0.9 3-1.5 3.7-3.8 0 0-3.4 3.5-8.1 2.5-1.2-0.2-3-0.6-4 1.5z" id="path26" fill="#302c3b" />
                    <path d="m23.4 19.6c-1.7-2.2-0.6-8.4-0.4-9.3 0.2-1 5.8 2.8 4.3 9.5-0.1 0.6-0.4 1.2-1 1.2-0.6 0-0.6-1.7-0.3-2.8 0.3-1.1-0.4 0-0.6 0.7-0.3 0.8-0.5 0.2-0.4-0.6 0.1-0.8-0.6 0.8-0.4 1.7 0.2 0.9 0 1.1-1.1-0.4zm-20.4 20.4c-0.5 0.3-0.4 0.5 0 0.4 0.5-0.2 2.7-0.7 2.9 1.6 0 0 0.1 1.1 0.4 0 0.3-1.1-0.4-3.8-3.3-2z" id="path28" fill="#99a8ae" />
                    <path d="m21 16c0 0 2.7 11 13.5 16.6 0 0-26.6-5.9-13.5-16.6zm8.2 0.7c0 0 6.8 18 20.8 23-13.8-13.2-10.4-20.6-21.4-25.8 0 0-0.1 1.3 0.6 2.8z" id="path30" fill="#e84d88" />
                    <path d="m29.7 39.6c0 0 6.3 6.1 1.7 22.4h-7.5c0 0 9.4-13.2 5.8-22.4z" id="path32" fill="#99a8ae" />
                </svg>