<svg xmlns:svg="http://www.w3.org/2000/svg" xmlns="http://www.w3.org/2000/svg" viewBox="0 0 58.71 58.71" version="1.1" id="svg5780">
  <defs id="defs5774">
    <filter id="filter6389" x="-0.05" width="1.11" y="-0.07" height="1.13" color-interpolation-filters="sRGB">
      <feGaussianBlur stdDeviation="1.21" id="feGaussianBlur6391"/>
    </filter>
    <filter id="filter6419" x="-0.03" width="1.07" y="-0.22" height="1.44" color-interpolation-filters="sRGB">
      <feGaussianBlur stdDeviation="0.49" id="feGaussianBlur6421"/>
    </filter>
  </defs>
  <metadata id="metadata5777"/>
  <path id="path6327-3" d="m29.35 51.29c-14.61 0-26.46-7.42-26.46-21.83 0-14.4 11.85-21.83 26.46-21.83 14.61 0 26.46 7.42 26.46 21.83 0 14.4-11.85 21.83-26.46 21.83z" style="fill:#e6e7e8;filter:url(#filter6389)"/>
  <path id="path6327" d="m29.36 48.18c-14.61 0-26.46-7.42-26.46-21.83 0-14.4 11.85-21.83 26.46-21.83 14.61 0 26.46 7.42 26.46 21.83 0 14.4-11.85 21.83-26.46 21.83z" fill="#49d49d"/>
  <path d="m18.94 13.84c-1.94-0.08-3.81 1.79-3.73 3.73L25.63 28 15.21 38.43c-0.08 1.94 1.78 3.8 3.71 3.71L29.35 31.72 39.48 41.85c1.94 0.08 3.81-1.79 3.74-3.73L33.08 27.98 43.25 17.81c0.08-1.94-1.78-3.8-3.72-3.71L29.37 24.26Z" id="rect6332-2" style="fill-opacity:0.49;fill:#e6e7e8;filter:url(#filter6419);stroke-width:1.04"/>
  <g id="g6129" transform="translate(-0.98896938,-8.7305928)">
    <path d="m19.16 10.02c-1.94-0.08-3.8 1.78-3.71 3.71L25.73 24.03 15.46 34.3c-0.08 1.94 1.79 3.81 3.73 3.73L29.47 27.76 39.77 38.07c1.94 0.08 3.8-1.78 3.71-3.71L33.18 24.05 43.47 13.76c0.08-1.94-1.79-3.81-3.73-3.73L29.45 20.31Z" transform="translate(0.87912522,11.037904)" id="rect6332" style="fill:#c6ffcd;stroke-width:1.04"/>
  </g>
</svg>