<svg xmlns="http://www.w3.org/2000/svg" xmlns:xlink="http://www.w3.org/1999/xlink" xmlns:lucid="lucid" width="1804.7" height="1031.54"><g transform="translate(760.99902500975 1030)" lucid:page-tab-id="0_0"><path d="M-265-805c0-2.76 2.24-5 5-5H24.6c2.76 0 5 2.24 5 5v158c0 2.76-2.24 5-5 5H-260c-2.76 0-5-2.24-5-5z" fill="#fff"/><path d="M-265-805c0-2.76 2.24-5 5-5H24.6c2.76 0 5 2.24 5 5v158c0 2.76-2.24 5-5 5H-260c-2.76 0-5-2.24-5-5zM-265-770H29.6M-221-770v128M-82.2-770v128" stroke="#000" stroke-width="2" fill="none"/><use xlink:href="#a" transform="matrix(1,0,0,1,-255,-810) translate(109.025 23.6)"/><use xlink:href="#b" transform="matrix(1,0,0,1,-260,-767.5) translate(5 17.1)"/><use xlink:href="#c" transform="matrix(1,0,0,1,-216,-767.5) translate(0 17.1)"/><use xlink:href="#d" transform="matrix(1,0,0,1,-77.19999999999999,-767.5) translate(0 17.1)"/><use xlink:href="#e" transform="matrix(1,0,0,1,-260,-735.5) translate(5 17.1)"/><use xlink:href="#f" transform="matrix(1,0,0,1,-216,-735.5) translate(0 17.1)"/><use xlink:href="#g" transform="matrix(1,0,0,1,-77.19999999999999,-735.5) translate(0 17.1)"/><use xlink:href="#h" transform="matrix(1,0,0,1,-216,-703.5) translate(0 17.1)"/><use xlink:href="#d" transform="matrix(1,0,0,1,-77.19999999999999,-703.5) translate(0 17.1)"/><use xlink:href="#i" transform="matrix(1,0,0,1,-260,-671.5) translate(5.524999999999999 17.1)"/><use xlink:href="#j" transform="matrix(1,0,0,1,-216,-671.5) translate(0 17.1)"/><use xlink:href="#g" transform="matrix(1,0,0,1,-77.19999999999999,-671.5) translate(0 17.1)"/><path d="M665-773c0-2.76 2.24-5 5-5h233.8c2.76 0 5 2.24 5 5v94c0 2.76-2.24 5-5 5H670c-2.76 0-5-2.24-5-5z" fill="#fff"/><path d="M665-773c0-2.76 2.24-5 5-5h233.8c2.76 0 5 2.24 5 5v94c0 2.76-2.24 5-5 5H670c-2.76 0-5-2.24-5-5zM665-738h243.8M738-738v64M831.95-738v64" stroke="#000" stroke-width="2" fill="none"/><use xlink:href="#k" transform="matrix(1,0,0,1,675,-778) translate(75.025 23.6)"/><use xlink:href="#b" transform="matrix(1,0,0,1,670,-735.5) translate(19.5 17.1)"/><use xlink:href="#c" transform="matrix(1,0,0,1,743,-735.5) translate(0 17.1)"/><use xlink:href="#d" transform="matrix(1,0,0,1,836.95,-735.5) translate(0 17.1)"/><use xlink:href="#l" transform="matrix(1,0,0,1,670,-703.5) translate(5 17.1)"/><use xlink:href="#k" transform="matrix(1,0,0,1,743,-703.5) translate(0 17.1)"/><use xlink:href="#m" transform="matrix(1,0,0,1,836.95,-703.5) translate(0 17.1)"/><path d="M295-755c0-2.76 2.24-5 5-5h287.7c2.76 0 5 2.24 5 5v158c0 2.76-2.24 5-5 5H300c-2.76 0-5-2.24-5-5z" fill="#fff"/><path d="M295-755c0-2.76 2.24-5 5-5h287.7c2.76 0 5 2.24 5 5v158c0 2.76-2.24 5-5 5H300c-2.76 0-5-2.24-5-5zM295-720h297.7M366.95-720v128M460.9-720v128" stroke="#000" stroke-width="2" fill="none"/><use xlink:href="#n" transform="matrix(1,0,0,1,305,-760) translate(73.57499999999999 23.6)"/><use xlink:href="#b" transform="matrix(1,0,0,1,300,-717.5) translate(19 17.1)"/><use xlink:href="#c" transform="matrix(1,0,0,1,371.95,-717.5) translate(0 17.1)"/><use xlink:href="#d" transform="matrix(1,0,0,1,465.90000000000003,-717.5) translate(0 17.1)"/><use xlink:href="#j" transform="matrix(1,0,0,1,371.95,-685.5) translate(0 17.1)"/><use xlink:href="#o" transform="matrix(1,0,0,1,465.90000000000003,-685.5) translate(0 17.1)"/><use xlink:href="#p" transform="matrix(1,0,0,1,300,-653.5) translate(5.024999999999999 17.1)"/><use xlink:href="#k" transform="matrix(1,0,0,1,371.95,-653.5) translate(0 17.1)"/><use xlink:href="#m" transform="matrix(1,0,0,1,465.90000000000003,-653.5) translate(0 17.1)"/><use xlink:href="#l" transform="matrix(1,0,0,1,300,-621.5) translate(4.5 17.1)"/><use xlink:href="#f" transform="matrix(1,0,0,1,371.95,-621.5) translate(0 17.1)"/><use xlink:href="#g" transform="matrix(1,0,0,1,465.90000000000003,-621.5) translate(0 17.1)"/><path d="M294-607.54H172.5v-50H30.6" stroke="#19967d" stroke-width="2" fill="none"/><path fill="#fff"/><path d="M275-597.54h-2v-20h2zM53.28-657.54l-21.8 10.9-.88-1.8 18.2-9.1-18.2-9.1.9-1.8z" fill="#19967d"/><path d="M664-689.7h-35.15v49.94H593.7" stroke="#000" stroke-width="2" fill="none"/><path fill="#fff"/><path d="M645-679.7h-2v-20h2zM616.38-639.76l-21.8 10.9-.88-1.8 18.2-9.1-18.2-9.1.9-1.8z"/><path d="M380-212.46c0-2.76 2.24-5 5-5h282.65c2.76 0 5 2.24 5 5v158c0 2.76-2.24 5-5 5H385c-2.76 0-5-2.24-5-5z" fill="#fff"/><path d="M380-212.46c0-2.76 2.24-5 5-5h282.65c2.76 0 5 2.24 5 5v158c0 2.76-2.24 5-5 5H385c-2.76 0-5-2.24-5-5zM380-177.46h292.65M453-177.46v128M560.85-177.46v128" stroke="#000" stroke-width="2" fill="none"/><use xlink:href="#q" transform="matrix(1,0,0,1,390,-217.45683574067857) translate(100.525 23.6)"/><use xlink:href="#b" transform="matrix(1,0,0,1,385,-174.95683574067857) translate(19.5 17.1)"/><use xlink:href="#c" transform="matrix(1,0,0,1,458,-174.95683574067857) translate(0 17.1)"/><use xlink:href="#d" transform="matrix(1,0,0,1,565.85,-174.95683574067857) translate(0 17.1)"/><use xlink:href="#l" transform="matrix(1,0,0,1,385,-142.95683574067857) translate(5 17.1)"/><use xlink:href="#f" transform="matrix(1,0,0,1,458,-142.95683574067857) translate(0 17.1)"/><use xlink:href="#g" transform="matrix(1,0,0,1,565.85,-142.95683574067857) translate(0 17.1)"/><use xlink:href="#i" transform="matrix(1,0,0,1,385,-110.95683574067857) translate(20.025 17.1)"/><use xlink:href="#j" transform="matrix(1,0,0,1,458,-110.95683574067857) translate(0 17.1)"/><use xlink:href="#g" transform="matrix(1,0,0,1,565.85,-110.95683574067857) translate(0 17.1)"/><use xlink:href="#r" transform="matrix(1,0,0,1,458,-78.95683574067857) translate(0 17.1)"/><use xlink:href="#s" transform="matrix(1,0,0,1,565.85,-78.95683574067857) translate(0 17.1)"/><path d="M593.7-607.54h119.95V-97.2h-40" stroke="#19967d" stroke-width="2" fill="none"/><path fill="#fff"/><path d="M614.7-597.54h-2v-20h2zM696.33-97.2l-21.8 10.88-.88-1.8 18.2-9.1-18.2-9.1.9-1.8z" fill="#19967d"/><path d="M745-212.46c0-2.76 2.24-5 5-5h236.7c2.76 0 5 2.24 5 5v158c0 2.76-2.24 5-5 5H750c-2.76 0-5-2.24-5-5z" fill="#fff"/><path d="M745-212.46c0-2.76 2.24-5 5-5h236.7c2.76 0 5 2.24 5 5v158c0 2.76-2.24 5-5 5H750c-2.76 0-5-2.24-5-5zM745-177.46h246.7M816.95-177.46v128M879.9-177.46v128" stroke="#000" stroke-width="2" fill="none"/><use xlink:href="#t" transform="matrix(1,0,0,1,755,-217.45683574067857) translate(58.074999999999996 23.6)"/><use xlink:href="#b" transform="matrix(1,0,0,1,750,-174.95683574067857) translate(19 17.1)"/><use xlink:href="#c" transform="matrix(1,0,0,1,821.95,-174.95683574067857) translate(0 17.1)"/><use xlink:href="#d" transform="matrix(1,0,0,1,884.9,-174.95683574067857) translate(0 17.1)"/><use xlink:href="#p" transform="matrix(1,0,0,1,750,-142.95683574067857) translate(5.024999999999999 17.1)"/><use xlink:href="#f" transform="matrix(1,0,0,1,821.95,-142.95683574067857) translate(0 17.1)"/><use xlink:href="#g" transform="matrix(1,0,0,1,884.9,-142.95683574067857) translate(0 17.1)"/><use xlink:href="#i" transform="matrix(1,0,0,1,750,-110.95683574067857) translate(19.525 17.1)"/><use xlink:href="#u" transform="matrix(1,0,0,1,821.95,-110.95683574067857) translate(0 17.1)"/><use xlink:href="#g" transform="matrix(1,0,0,1,884.9,-110.95683574067857) translate(0 17.1)"/><use xlink:href="#i" transform="matrix(1,0,0,1,750,-78.95683574067857) translate(19.525 17.1)"/><use xlink:href="#v" transform="matrix(1,0,0,1,821.95,-78.95683574067857) translate(0 17.1)"/><use xlink:href="#g" transform="matrix(1,0,0,1,884.9,-78.95683574067857) translate(0 17.1)"/><path d="M593.7-607.54h439v478.12h-40" stroke="#19967d" stroke-width="2" fill="none"/><path fill="#fff"/><path d="M614.7-597.54h-2v-20h2zM1015.38-129.42l-21.8 10.9-.88-1.8 18.2-9.1-18.2-9.1.9-1.8z" fill="#19967d"/><path d="M379-129.43h-71.5V-9.46h725.2V-64.9h-40" stroke="#834187" stroke-width="2" fill="none"/><path fill="#fff"/><path d="M360-119.43h-2v-20h2zM1015.38-64.9L993.58-54l-.88-1.8 18.2-9.1-18.2-9.1.9-1.8z" fill="#834187"/><path d="M593.7-607.54h439v510.38h-40" stroke="#19967d" stroke-width="2" fill="none"/><path fill="#fff"/><path d="M614.7-597.54h-2v-20h2zM1015.38-97.16l-21.8 10.9-.88-1.8 18.2-9.1-18.2-9.1.9-1.8z" fill="#19967d"/><path d="M-100.58-448.46c0-2.76 2.24-5 5-5h230.66c2.76 0 5 2.24 5 5v158c0 2.76-2.24 5-5 5H-95.58c-2.76 0-5-2.24-5-5z" fill="#fff"/><path d="M-100.58-448.46c0-2.76 2.24-5 5-5h230.66c2.76 0 5 2.24 5 5v158c0 2.76-2.24 5-5 5H-95.58c-2.76 0-5-2.24-5-5zM-100.58-413.46h240.66M-28.63-413.46v128M28.28-413.46v128" stroke="#000" stroke-width="2" fill="none"/><use xlink:href="#w" transform="matrix(1,0,0,1,-90.57500000000002,-453.45683574067857) translate(91.075 23.6)"/><use xlink:href="#b" transform="matrix(1,0,0,1,-95.57500000000002,-410.95683574067857) translate(19 17.1)"/><use xlink:href="#c" transform="matrix(1,0,0,1,-23.625000000000014,-410.95683574067857) translate(0 17.1)"/><use xlink:href="#d" transform="matrix(1,0,0,1,33.275000000000006,-410.95683574067857) translate(0 17.1)"/><use xlink:href="#p" transform="matrix(1,0,0,1,-95.57500000000002,-378.95683574067857) translate(5.024999999999999 17.1)"/><use xlink:href="#f" transform="matrix(1,0,0,1,-23.625000000000014,-378.95683574067857) translate(0 17.1)"/><use xlink:href="#g" transform="matrix(1,0,0,1,33.275000000000006,-378.95683574067857) translate(0 17.1)"/><use xlink:href="#i" transform="matrix(1,0,0,1,-95.57500000000002,-346.95683574067857) translate(19.525 17.1)"/><use xlink:href="#x" transform="matrix(1,0,0,1,-23.625000000000014,-346.95683574067857) translate(0 17.1)"/><use xlink:href="#g" transform="matrix(1,0,0,1,33.275000000000006,-346.95683574067857) translate(0 17.1)"/><use xlink:href="#i" transform="matrix(1,0,0,1,-95.57500000000002,-314.95683574067857) translate(19.525 17.1)"/><use xlink:href="#v" transform="matrix(1,0,0,1,-23.625000000000014,-314.95683574067857) translate(0 17.1)"/><use xlink:href="#g" transform="matrix(1,0,0,1,33.275000000000006,-314.95683574067857) translate(0 17.1)"/><path d="M294-607.54H172.5v242.12h-31.42" stroke="#19967d" stroke-width="2" fill="none"/><path fill="#fff"/><path d="M275-597.54h-2v-20h2zM163.76-365.42l-21.8 10.9-.9-1.8 18.23-9.1-18.23-9.1.9-1.8z" fill="#19967d"/><path d="M-100.58-212.46c0-2.76 2.24-5 5-5h266.75c2.77 0 5 2.24 5 5v158c0 2.76-2.23 5-5 5H-95.58c-2.76 0-5-2.24-5-5z" fill="#fff"/><path d="M-100.58-212.46c0-2.76 2.24-5 5-5h266.75c2.77 0 5 2.24 5 5v158c0 2.76-2.23 5-5 5H-95.58c-2.76 0-5-2.24-5-5zM-100.58-177.46h276.75M-27.58-177.46v128M64.37-177.46v128" stroke="#000" stroke-width="2" fill="none"/><use xlink:href="#y" transform="matrix(1,0,0,1,-90.57500000000005,-217.45683574067857) translate(91.575 23.6)"/><use xlink:href="#b" transform="matrix(1,0,0,1,-95.57500000000005,-174.95683574067857) translate(19.5 17.1)"/><use xlink:href="#c" transform="matrix(1,0,0,1,-22.575000000000045,-174.95683574067857) translate(0 17.1)"/><use xlink:href="#d" transform="matrix(1,0,0,1,69.37499999999994,-174.95683574067857) translate(0 17.1)"/><use xlink:href="#l" transform="matrix(1,0,0,1,-95.57500000000005,-142.95683574067857) translate(5 17.1)"/><use xlink:href="#f" transform="matrix(1,0,0,1,-22.575000000000045,-142.95683574067857) translate(0 17.1)"/><use xlink:href="#g" transform="matrix(1,0,0,1,69.37499999999994,-142.95683574067857) translate(0 17.1)"/><use xlink:href="#i" transform="matrix(1,0,0,1,-95.57500000000005,-110.95683574067857) translate(20.025 17.1)"/><use xlink:href="#j" transform="matrix(1,0,0,1,-22.575000000000045,-110.95683574067857) translate(0 17.1)"/><use xlink:href="#g" transform="matrix(1,0,0,1,69.37499999999994,-110.95683574067857) translate(0 17.1)"/><use xlink:href="#i" transform="matrix(1,0,0,1,-95.57500000000005,-78.95683574067857) translate(20.025 17.1)"/><use xlink:href="#q" transform="matrix(1,0,0,1,-22.575000000000045,-78.95683574067857) translate(0 17.1)"/><use xlink:href="#g" transform="matrix(1,0,0,1,69.37499999999994,-78.95683574067857) translate(0 17.1)"/><path d="M177.17-129.43h40V-300.9h-76.1" stroke="#000" stroke-width="2" fill="none"/><path fill="#fff"/><path d="M198.18-119.43h-2v-20h2zM163.76-300.9l-21.8 10.9-.9-1.8 18.23-9.1-18.23-9.1.9-1.8z"/><path d="M294-607.54h-33V-97.2h-83.83" stroke="#19967d" stroke-width="2" fill="none"/><path fill="#fff"/><path d="M275-597.54h-2v-20h2zM199.86-97.2l-21.8 10.9-.88-1.8 18.2-9.1-18.2-9.1.9-1.8z" fill="#19967d"/><path d="M379-129.43h-71.5v64.46H177.17" stroke="#834187" stroke-width="2" fill="none"/><path fill="#fff"/><path d="M360-119.43h-2v-20h2zM199.86-64.97l-21.8 10.9-.88-1.8 18.2-9.1-18.2-9.1.9-1.8z" fill="#834187"/><path d="M-464-416.46c0-2.76 2.24-5 5-5h223.8c2.76 0 5 2.24 5 5v126c0 2.76-2.24 5-5 5H-459c-2.76 0-5-2.24-5-5z" fill="#fff"/><path d="M-464-416.46c0-2.76 2.24-5 5-5h223.8c2.76 0 5 2.24 5 5v126c0 2.76-2.24 5-5 5H-459c-2.76 0-5-2.24-5-5zM-464-381.46h233.8M-391-381.46v96M-342-381.46v96" stroke="#000" stroke-width="2" fill="none"/><use xlink:href="#z" transform="matrix(1,0,0,1,-454,-421.45683574067857) translate(40.599999999999994 23.6)"/><use xlink:href="#b" transform="matrix(1,0,0,1,-459,-378.95683574067857) translate(19.5 17.1)"/><use xlink:href="#c" transform="matrix(1,0,0,1,-386,-378.95683574067857) translate(0 17.1)"/><use xlink:href="#d" transform="matrix(1,0,0,1,-337,-378.95683574067857) translate(0 17.1)"/><use xlink:href="#l" transform="matrix(1,0,0,1,-459,-346.95683574067857) translate(5 17.1)"/><use xlink:href="#f" transform="matrix(1,0,0,1,-386,-346.95683574067857) translate(0 17.1)"/><use xlink:href="#g" transform="matrix(1,0,0,1,-337,-346.95683574067857) translate(0 17.1)"/><use xlink:href="#i" transform="matrix(1,0,0,1,-459,-314.95683574067857) translate(20.025 17.1)"/><use xlink:href="#j" transform="matrix(1,0,0,1,-386,-314.95683574067857) translate(0 17.1)"/><use xlink:href="#g" transform="matrix(1,0,0,1,-337,-314.95683574067857) translate(0 17.1)"/><path d="M-229.2-333.3h63.8v.14h63.82" stroke="#000" stroke-width="2" fill="none"/><path fill="#fff"/><path d="M-208.2-323.3h-2v-20h2zM-101.58-342.26l-18.2 9.1 18.2 9.1-.9 1.8-21.78-10.9 21.8-10.9z"/><path d="M294-607.54h-799V-301h40" stroke="#19967d" stroke-width="2" fill="none"/><path fill="#fff"/><path d="M275-597.54h-2v-20h2zM-465-310.12l-18.2 9.1 18.2 9.1-.9 1.8-21.78-10.9 21.8-10.9z" fill="#19967d"/><path d="M-735-980h41.9" stroke="#19967d" stroke-width="5" fill="none"/><path d="M-678.1-980l-14.26 4.64v-9.28z" fill="#19967d"/><path d="M-670-980l-24.86 8.08v-16.16zm-19.86 1.2l3.68-1.2-3.68-1.2z" fill="#19967d"/><path d="M-670-1005c0-2.76 2.24-5 5-5h415c2.76 0 5 2.24 5 5v50c0 2.76-2.24 5-5 5h-415c-2.76 0-5-2.24-5-5z" stroke="#000" stroke-opacity="0" stroke-width="2" fill="#fff" fill-opacity="0"/><use xlink:href="#A" transform="matrix(1,0,0,1,-670,-1010) translate(118.10499999999999 19.41)"/><use xlink:href="#B" transform="matrix(1,0,0,1,-670,-1010) translate(156.05499999999998 19.41)"/><use xlink:href="#C" transform="matrix(1,0,0,1,-670,-1010) translate(176.055 19.41)"/><use xlink:href="#D" transform="matrix(1,0,0,1,-670,-1010) translate(12.28000000000001 41.01)"/><use xlink:href="#E" transform="matrix(1,0,0,1,-670,-1010) translate(37.18000000000001 41.01)"/><use xlink:href="#F" transform="matrix(1,0,0,1,-670,-1010) translate(94.13000000000001 41.01)"/><use xlink:href="#G" transform="matrix(1,0,0,1,-670,-1010) translate(153.08 41.01)"/><use xlink:href="#H" transform="matrix(1,0,0,1,-670,-1010) translate(208.03 41.01)"/><use xlink:href="#I" transform="matrix(1,0,0,1,-670,-1010) translate(230.98 41.01)"/><use xlink:href="#J" transform="matrix(1,0,0,1,-670,-1010) translate(273.83000000000004 41.01)"/><use xlink:href="#K" transform="matrix(1,0,0,1,-670,-1010) translate(352.78 41.01)"/><path d="M-735-900h41.9" stroke="#834187" stroke-width="5" fill="none"/><path d="M-678.1-900l-14.26 4.64v-9.28z" fill="#834187"/><path d="M-670-900l-24.86 8.08v-16.16zm-19.86 1.2l3.68-1.2-3.68-1.2z" fill="#834187"/><path d="M-670-925c0-2.76 2.24-5 5-5h559.42c2.77 0 5 2.24 5 5v50c0 2.76-2.23 5-5 5H-665c-2.76 0-5-2.24-5-5z" stroke="#000" stroke-opacity="0" stroke-width="2" fill="#fff" fill-opacity="0"/><g><use xlink:href="#A" transform="matrix(1,0,0,1,-670,-930) translate(219.55499999999998 19.41)"/><use xlink:href="#B" transform="matrix(1,0,0,1,-670,-930) translate(257.505 19.41)"/><use xlink:href="#L" transform="matrix(1,0,0,1,-670,-930) translate(277.505 19.41)"/><use xlink:href="#M" transform="matrix(1,0,0,1,-670,-930) translate(38.255 41.01)"/><use xlink:href="#N" transform="matrix(1,0,0,1,-670,-930) translate(117.105 41.01)"/><use xlink:href="#O" transform="matrix(1,0,0,1,-670,-930) translate(152.10500000000002 41.01)"/><use xlink:href="#P" transform="matrix(1,0,0,1,-670,-930) translate(267.95500000000004 41.01)"/><use xlink:href="#Q" transform="matrix(1,0,0,1,-670,-930) translate(306.90500000000003 41.01)"/><use xlink:href="#R" transform="matrix(1,0,0,1,-670,-930) translate(331.90500000000003 41.01)"/><use xlink:href="#S" transform="matrix(1,0,0,1,-670,-930) translate(371.90500000000003 41.01)"/><use xlink:href="#B" transform="matrix(1,0,0,1,-670,-930) translate(423.805 41.01)"/><use xlink:href="#T" transform="matrix(1,0,0,1,-670,-930) translate(443.805 41.01)"/><use xlink:href="#U" transform="matrix(1,0,0,1,-670,-930) translate(458.805 41.01)"/></g><defs><path d="M135-143c-3-34-86-38-87 0 15 53 115 12 119 90S17 21 10-45l28-5c4 36 97 45 98 0-10-56-113-15-118-90-4-57 82-63 122-42 12 7 21 19 24 35" id="V"/><path d="M179-190L93 31C79 59 56 82 12 73V49c39 6 53-20 64-50L1-190h34L92-34l54-156h33" id="W"/><path d="M59-47c-2 24 18 29 38 22v24C64 9 27 4 27-40v-127H5v-23h24l9-43h21v43h35v23H59v120" id="X"/><path d="M100-194c63 0 86 42 84 106H49c0 40 14 67 53 68 26 1 43-12 49-29l28 8c-11 28-37 45-77 45C44 4 14-33 15-96c1-61 26-98 85-98zm52 81c6-60-76-77-97-28-3 7-6 17-6 28h103" id="Y"/><path d="M210-169c-67 3-38 105-44 169h-31v-121c0-29-5-50-35-48C34-165 62-65 56 0H25l-1-190h30c1 10-1 24 2 32 10-44 99-50 107 0 11-21 27-35 58-36 85-2 47 119 55 194h-31v-121c0-29-5-49-35-48" id="Z"/><g id="a"><use transform="matrix(0.05,0,0,0.05,0,0)" xlink:href="#V"/><use transform="matrix(0.05,0,0,0.05,9,0)" xlink:href="#W"/><use transform="matrix(0.05,0,0,0.05,18,0)" xlink:href="#V"/><use transform="matrix(0.05,0,0,0.05,27,0)" xlink:href="#X"/><use transform="matrix(0.05,0,0,0.05,32,0)" xlink:href="#Y"/><use transform="matrix(0.05,0,0,0.05,42,0)" xlink:href="#Z"/></g><path d="M30-248c87 1 191-15 191 75 0 78-77 80-158 76V0H30v-248zm33 125c57 0 124 11 124-50 0-59-68-47-124-48v98" id="aa"/><path d="M194 0L95-120 63-95V0H30v-248h33v124l119-124h40L117-140 236 0h-42" id="ab"/><g id="b"><use transform="matrix(0.05,0,0,0.05,0,0)" xlink:href="#aa"/><use transform="matrix(0.05,0,0,0.05,12,0)" xlink:href="#ab"/></g><path d="M24-231v-30h32v30H24zM24 0v-190h32V0H24" id="ac"/><path d="M85-194c31 0 48 13 60 33l-1-100h32l1 261h-30c-2-10 0-23-3-31C134-8 116 4 85 4 32 4 16-35 15-94c0-66 23-100 70-100zm9 24c-40 0-46 34-46 75 0 40 6 74 45 74 42 0 51-32 51-76 0-42-9-74-50-73" id="ad"/><g id="c"><use transform="matrix(0.05,0,0,0.05,0,0)" xlink:href="#ac"/><use transform="matrix(0.05,0,0,0.05,3.95,0)" xlink:href="#ad"/></g><path d="M117-194c89-4 53 116 60 194h-32v-121c0-31-8-49-39-48C34-167 62-67 57 0H25l-1-190h30c1 10-1 24 2 32 11-22 29-35 61-36" id="ae"/><g id="d"><use transform="matrix(0.05,0,0,0.05,0,0)" xlink:href="#ac"/><use transform="matrix(0.05,0,0,0.05,3.95,0)" xlink:href="#ae"/><use transform="matrix(0.05,0,0,0.05,13.949999999999998,0)" xlink:href="#X"/></g><path d="M205 0l-28-72H64L36 0H1l101-248h38L239 0h-34zm-38-99l-47-123c-12 45-31 82-46 123h93" id="af"/><g id="e"><use transform="matrix(0.05,0,0,0.05,0,0)" xlink:href="#af"/><use transform="matrix(0.05,0,0,0.05,12,0)" xlink:href="#ab"/></g><path d="M141-36C126-15 110 5 73 4 37 3 15-17 15-53c-1-64 63-63 125-63 3-35-9-54-41-54-24 1-41 7-42 31l-33-3c5-37 33-52 76-52 45 0 72 20 72 64v82c-1 20 7 32 28 27v20c-31 9-61-2-59-35zM48-53c0 20 12 33 32 33 41-3 63-29 60-74-43 2-92-5-92 41" id="ag"/><g id="f"><use transform="matrix(0.05,0,0,0.05,0,0)" xlink:href="#ae"/><use transform="matrix(0.05,0,0,0.05,10,0)" xlink:href="#ag"/><use transform="matrix(0.05,0,0,0.05,20,0)" xlink:href="#Z"/><use transform="matrix(0.05,0,0,0.05,34.95,0)" xlink:href="#Y"/></g><path d="M108 0H70L1-190h34L89-25l56-165h34" id="ah"/><path d="M114-163C36-179 61-72 57 0H25l-1-190h30c1 12-1 29 2 39 6-27 23-49 58-41v29" id="ai"/><path d="M96-169c-40 0-48 33-48 73s9 75 48 75c24 0 41-14 43-38l32 2c-6 37-31 61-74 61-59 0-76-41-82-99-10-93 101-131 147-64 4 7 5 14 7 22l-32 3c-4-21-16-35-41-35" id="aj"/><path d="M106-169C34-169 62-67 57 0H25v-261h32l-1 103c12-21 28-36 61-36 89 0 53 116 60 194h-32v-121c2-32-8-49-39-48" id="ak"/><path d="M87 75C49 33 22-17 22-94c0-76 28-126 65-167h31c-38 41-64 92-64 168S80 34 118 75H87" id="al"/><path d="M101-251c82-7 93 87 43 132L82-64C71-53 59-42 53-27h129V0H18c2-99 128-94 128-182 0-28-16-43-45-43s-46 15-49 41l-32-3c6-41 34-60 81-64" id="am"/><path d="M54-142c48-35 137-8 131 61C196 18 31 33 14-55l32-4c7 23 22 37 52 37 35-1 51-22 54-58 4-55-73-65-99-34H22l8-134h141v27H59" id="an"/><path d="M33-261c38 41 65 92 65 168S71 34 33 75H2C39 34 66-17 66-93S39-220 2-261h31" id="ao"/><g id="g"><use transform="matrix(0.05,0,0,0.05,0,0)" xlink:href="#ah"/><use transform="matrix(0.05,0,0,0.05,9,0)" xlink:href="#ag"/><use transform="matrix(0.05,0,0,0.05,19,0)" xlink:href="#ai"/><use transform="matrix(0.05,0,0,0.05,24.95,0)" xlink:href="#aj"/><use transform="matrix(0.05,0,0,0.05,33.95,0)" xlink:href="#ak"/><use transform="matrix(0.05,0,0,0.05,43.95,0)" xlink:href="#ag"/><use transform="matrix(0.05,0,0,0.05,53.95,0)" xlink:href="#ai"/><use transform="matrix(0.05,0,0,0.05,59.900000000000006,0)" xlink:href="#al"/><use transform="matrix(0.05,0,0,0.05,65.85000000000001,0)" xlink:href="#am"/><use transform="matrix(0.05,0,0,0.05,75.85000000000001,0)" xlink:href="#an"/><use transform="matrix(0.05,0,0,0.05,85.85000000000001,0)" xlink:href="#ao"/></g><path d="M100-194c62-1 85 37 85 99 1 63-27 99-86 99S16-35 15-95c0-66 28-99 85-99zM99-20c44 1 53-31 53-75 0-43-8-75-51-75s-53 32-53 75 10 74 51 75" id="ap"/><path d="M84 4C-5 8 30-112 23-190h32v120c0 31 7 50 39 49 72-2 45-101 50-169h31l1 190h-30c-1-10 1-25-2-33-11 22-28 36-60 37" id="aq"/><path d="M115-194c53 0 69 39 70 98 0 66-23 100-70 100C84 3 66-7 56-30L54 0H23l1-261h32v101c10-23 28-34 59-34zm-8 174c40 0 45-34 45-75 0-40-5-75-45-74-42 0-51 32-51 76 0 43 10 73 51 73" id="ar"/><g id="h"><use transform="matrix(0.05,0,0,0.05,0,0)" xlink:href="#ah"/><use transform="matrix(0.05,0,0,0.05,9,0)" xlink:href="#Y"/><use transform="matrix(0.05,0,0,0.05,19,0)" xlink:href="#ai"/><use transform="matrix(0.05,0,0,0.05,24.95,0)" xlink:href="#V"/><use transform="matrix(0.05,0,0,0.05,33.95,0)" xlink:href="#ac"/><use transform="matrix(0.05,0,0,0.05,37.900000000000006,0)" xlink:href="#ap"/><use transform="matrix(0.05,0,0,0.05,47.900000000000006,0)" xlink:href="#ae"/><use transform="matrix(0.05,0,0,0.05,57.900000000000006,0)" xlink:href="#ae"/><use transform="matrix(0.05,0,0,0.05,67.9,0)" xlink:href="#aq"/><use transform="matrix(0.05,0,0,0.05,77.9,0)" xlink:href="#Z"/><use transform="matrix(0.05,0,0,0.05,92.85000000000001,0)" xlink:href="#ar"/><use transform="matrix(0.05,0,0,0.05,102.85000000000001,0)" xlink:href="#Y"/><use transform="matrix(0.05,0,0,0.05,112.85000000000001,0)" xlink:href="#ai"/></g><path d="M63-220v92h138v28H63V0H30v-248h175v28H63" id="as"/><g id="i"><use transform="matrix(0.05,0,0,0.05,0,0)" xlink:href="#as"/><use transform="matrix(0.05,0,0,0.05,10.950000000000001,0)" xlink:href="#ab"/></g><path d="M141 0L90-78 38 0H4l68-98-65-92h35l48 74 47-74h35l-64 92 68 98h-35" id="at"/><g id="j"><use transform="matrix(0.05,0,0,0.05,0,0)" xlink:href="#X"/><use transform="matrix(0.05,0,0,0.05,5,0)" xlink:href="#Y"/><use transform="matrix(0.05,0,0,0.05,15,0)" xlink:href="#at"/><use transform="matrix(0.05,0,0,0.05,24,0)" xlink:href="#X"/></g><path d="M24 0v-261h32V0H24" id="au"/><path d="M177-190C167-65 218 103 67 71c-23-6-38-20-44-43l32-5c15 47 100 32 89-28v-30C133-14 115 1 83 1 29 1 15-40 15-95c0-56 16-97 71-98 29-1 48 16 59 35 1-10 0-23 2-32h30zM94-22c36 0 50-32 50-73 0-42-14-75-50-75-39 0-46 34-46 75s6 73 46 73" id="av"/><g id="k"><use transform="matrix(0.05,0,0,0.05,0,0)" xlink:href="#au"/><use transform="matrix(0.05,0,0,0.05,3.95,0)" xlink:href="#ag"/><use transform="matrix(0.05,0,0,0.05,13.949999999999998,0)" xlink:href="#ae"/><use transform="matrix(0.05,0,0,0.05,23.95,0)" xlink:href="#av"/><use transform="matrix(0.05,0,0,0.05,33.95,0)" xlink:href="#aq"/><use transform="matrix(0.05,0,0,0.05,43.95,0)" xlink:href="#ag"/><use transform="matrix(0.05,0,0,0.05,53.95,0)" xlink:href="#av"/><use transform="matrix(0.05,0,0,0.05,63.95,0)" xlink:href="#Y"/></g><path d="M68-38c1 34 0 65-14 84H32c9-13 17-26 17-46H33v-38h35" id="aw"/><g id="l"><use transform="matrix(0.05,0,0,0.05,0,0)" xlink:href="#aa"/><use transform="matrix(0.05,0,0,0.05,12,0)" xlink:href="#ab"/><use transform="matrix(0.05,0,0,0.05,24,0)" xlink:href="#aw"/><use transform="matrix(0.05,0,0,0.05,29,0)" xlink:href="#af"/><use transform="matrix(0.05,0,0,0.05,41,0)" xlink:href="#ab"/></g><g id="m"><use transform="matrix(0.05,0,0,0.05,0,0)" xlink:href="#aj"/><use transform="matrix(0.05,0,0,0.05,9,0)" xlink:href="#ak"/><use transform="matrix(0.05,0,0,0.05,19,0)" xlink:href="#ag"/><use transform="matrix(0.05,0,0,0.05,29,0)" xlink:href="#ai"/><use transform="matrix(0.05,0,0,0.05,34.95,0)" xlink:href="#al"/><use transform="matrix(0.05,0,0,0.05,40.900000000000006,0)" xlink:href="#am"/><use transform="matrix(0.05,0,0,0.05,50.900000000000006,0)" xlink:href="#ao"/></g><path d="M-5 72V49h209v23H-5" id="ax"/><g id="n"><use transform="matrix(0.05,0,0,0.05,0,0)" xlink:href="#X"/><use transform="matrix(0.05,0,0,0.05,5,0)" xlink:href="#Y"/><use transform="matrix(0.05,0,0,0.05,15,0)" xlink:href="#at"/><use transform="matrix(0.05,0,0,0.05,24,0)" xlink:href="#X"/><use transform="matrix(0.05,0,0,0.05,29,0)" xlink:href="#ax"/><use transform="matrix(0.05,0,0,0.05,39,0)" xlink:href="#X"/><use transform="matrix(0.05,0,0,0.05,44,0)" xlink:href="#ai"/><use transform="matrix(0.05,0,0,0.05,49.95,0)" xlink:href="#ag"/><use transform="matrix(0.05,0,0,0.05,59.95,0)" xlink:href="#ae"/><use transform="matrix(0.05,0,0,0.05,69.95,0)" xlink:href="#V"/><use transform="matrix(0.05,0,0,0.05,78.95,0)" xlink:href="#au"/><use transform="matrix(0.05,0,0,0.05,82.9,0)" xlink:href="#ag"/><use transform="matrix(0.05,0,0,0.05,92.9,0)" xlink:href="#X"/><use transform="matrix(0.05,0,0,0.05,97.9,0)" xlink:href="#ac"/><use transform="matrix(0.05,0,0,0.05,101.85000000000001,0)" xlink:href="#ap"/><use transform="matrix(0.05,0,0,0.05,111.85000000000001,0)" xlink:href="#ae"/><use transform="matrix(0.05,0,0,0.05,121.85000000000001,0)" xlink:href="#V"/></g><path d="M27 0v-27h64v-190l-56 39v-29l58-41h29v221h61V0H27" id="ay"/><path d="M101-251c68 0 85 55 85 127S166 4 100 4C33 4 14-52 14-124c0-73 17-127 87-127zm-1 229c47 0 54-49 54-102s-4-102-53-102c-51 0-55 48-55 102 0 53 5 102 54 102" id="az"/><g id="o"><use transform="matrix(0.05,0,0,0.05,0,0)" xlink:href="#ah"/><use transform="matrix(0.05,0,0,0.05,9,0)" xlink:href="#ag"/><use transform="matrix(0.05,0,0,0.05,19,0)" xlink:href="#ai"/><use transform="matrix(0.05,0,0,0.05,24.95,0)" xlink:href="#aj"/><use transform="matrix(0.05,0,0,0.05,33.95,0)" xlink:href="#ak"/><use transform="matrix(0.05,0,0,0.05,43.95,0)" xlink:href="#ag"/><use transform="matrix(0.05,0,0,0.05,53.95,0)" xlink:href="#ai"/><use transform="matrix(0.05,0,0,0.05,59.900000000000006,0)" xlink:href="#al"/><use transform="matrix(0.05,0,0,0.05,65.85000000000001,0)" xlink:href="#ay"/><use transform="matrix(0.05,0,0,0.05,75.85000000000001,0)" xlink:href="#az"/><use transform="matrix(0.05,0,0,0.05,85.85000000000001,0)" xlink:href="#az"/><use transform="matrix(0.05,0,0,0.05,95.85000000000001,0)" xlink:href="#az"/><use transform="matrix(0.05,0,0,0.05,105.85000000000001,0)" xlink:href="#ao"/></g><g id="p"><use transform="matrix(0.05,0,0,0.05,0,0)" xlink:href="#as"/><use transform="matrix(0.05,0,0,0.05,10.950000000000001,0)" xlink:href="#ab"/><use transform="matrix(0.05,0,0,0.05,22.950000000000003,0)" xlink:href="#aw"/><use transform="matrix(0.05,0,0,0.05,27.950000000000003,0)" xlink:href="#af"/><use transform="matrix(0.05,0,0,0.05,39.95,0)" xlink:href="#ab"/></g><path d="M115-194c55 1 70 41 70 98S169 2 115 4C84 4 66-9 55-30l1 105H24l-1-265h31l2 30c10-21 28-34 59-34zm-8 174c40 0 45-34 45-75s-6-73-45-74c-42 0-51 32-51 76 0 43 10 73 51 73" id="aA"/><g id="q"><use transform="matrix(0.05,0,0,0.05,0,0)" xlink:href="#ah"/><use transform="matrix(0.05,0,0,0.05,9,0)" xlink:href="#ac"/><use transform="matrix(0.05,0,0,0.05,12.949999999999998,0)" xlink:href="#X"/><use transform="matrix(0.05,0,0,0.05,17.95,0)" xlink:href="#ag"/><use transform="matrix(0.05,0,0,0.05,27.950000000000003,0)" xlink:href="#ax"/><use transform="matrix(0.05,0,0,0.05,37.95,0)" xlink:href="#X"/><use transform="matrix(0.05,0,0,0.05,42.95,0)" xlink:href="#W"/><use transform="matrix(0.05,0,0,0.05,51.95,0)" xlink:href="#aA"/><use transform="matrix(0.05,0,0,0.05,61.95,0)" xlink:href="#Y"/></g><g id="r"><use transform="matrix(0.05,0,0,0.05,0,0)" xlink:href="#ag"/><use transform="matrix(0.05,0,0,0.05,10,0)" xlink:href="#ae"/><use transform="matrix(0.05,0,0,0.05,20,0)" xlink:href="#ac"/><use transform="matrix(0.05,0,0,0.05,23.95,0)" xlink:href="#Z"/><use transform="matrix(0.05,0,0,0.05,38.9,0)" xlink:href="#ag"/><use transform="matrix(0.05,0,0,0.05,48.9,0)" xlink:href="#X"/><use transform="matrix(0.05,0,0,0.05,53.900000000000006,0)" xlink:href="#ag"/><use transform="matrix(0.05,0,0,0.05,63.900000000000006,0)" xlink:href="#ar"/><use transform="matrix(0.05,0,0,0.05,73.9,0)" xlink:href="#au"/><use transform="matrix(0.05,0,0,0.05,77.85000000000001,0)" xlink:href="#Y"/></g><g id="s"><use transform="matrix(0.05,0,0,0.05,0,0)" xlink:href="#X"/><use transform="matrix(0.05,0,0,0.05,5,0)" xlink:href="#ac"/><use transform="matrix(0.05,0,0,0.05,8.95,0)" xlink:href="#ae"/><use transform="matrix(0.05,0,0,0.05,18.95,0)" xlink:href="#W"/><use transform="matrix(0.05,0,0,0.05,27.950000000000003,0)" xlink:href="#ac"/><use transform="matrix(0.05,0,0,0.05,31.899999999999995,0)" xlink:href="#ae"/><use transform="matrix(0.05,0,0,0.05,41.9,0)" xlink:href="#X"/></g><g id="t"><use transform="matrix(0.05,0,0,0.05,0,0)" xlink:href="#ah"/><use transform="matrix(0.05,0,0,0.05,9,0)" xlink:href="#ac"/><use transform="matrix(0.05,0,0,0.05,12.949999999999998,0)" xlink:href="#X"/><use transform="matrix(0.05,0,0,0.05,17.95,0)" xlink:href="#ag"/><use transform="matrix(0.05,0,0,0.05,27.950000000000003,0)" xlink:href="#ax"/><use transform="matrix(0.05,0,0,0.05,37.95,0)" xlink:href="#Y"/><use transform="matrix(0.05,0,0,0.05,47.95,0)" xlink:href="#au"/><use transform="matrix(0.05,0,0,0.05,51.900000000000006,0)" xlink:href="#Y"/><use transform="matrix(0.05,0,0,0.05,61.900000000000006,0)" xlink:href="#Z"/><use transform="matrix(0.05,0,0,0.05,76.85000000000001,0)" xlink:href="#Y"/><use transform="matrix(0.05,0,0,0.05,86.85000000000001,0)" xlink:href="#ae"/><use transform="matrix(0.05,0,0,0.05,96.85000000000001,0)" xlink:href="#X"/><use transform="matrix(0.05,0,0,0.05,101.85000000000001,0)" xlink:href="#V"/></g><g id="u"><use transform="matrix(0.05,0,0,0.05,0,0)" xlink:href="#ah"/><use transform="matrix(0.05,0,0,0.05,9,0)" xlink:href="#ag"/><use transform="matrix(0.05,0,0,0.05,19,0)" xlink:href="#au"/><use transform="matrix(0.05,0,0,0.05,22.95,0)" xlink:href="#aq"/><use transform="matrix(0.05,0,0,0.05,32.95,0)" xlink:href="#Y"/></g><g id="v"><use transform="matrix(0.05,0,0,0.05,0,0)" xlink:href="#X"/><use transform="matrix(0.05,0,0,0.05,5,0)" xlink:href="#W"/><use transform="matrix(0.05,0,0,0.05,14,0)" xlink:href="#aA"/><use transform="matrix(0.05,0,0,0.05,24,0)" xlink:href="#Y"/></g><path d="M143 0L79-87 56-68V0H24v-261h32v163l83-92h37l-77 82L181 0h-38" id="aB"/><g id="w"><use transform="matrix(0.05,0,0,0.05,0,0)" xlink:href="#V"/><use transform="matrix(0.05,0,0,0.05,9,0)" xlink:href="#aB"/><use transform="matrix(0.05,0,0,0.05,18,0)" xlink:href="#ac"/><use transform="matrix(0.05,0,0,0.05,21.95,0)" xlink:href="#au"/><use transform="matrix(0.05,0,0,0.05,25.899999999999995,0)" xlink:href="#au"/><use transform="matrix(0.05,0,0,0.05,29.849999999999994,0)" xlink:href="#V"/></g><g id="x"><use transform="matrix(0.05,0,0,0.05,0,0)" xlink:href="#au"/><use transform="matrix(0.05,0,0,0.05,3.95,0)" xlink:href="#Y"/><use transform="matrix(0.05,0,0,0.05,13.949999999999998,0)" xlink:href="#ah"/><use transform="matrix(0.05,0,0,0.05,22.95,0)" xlink:href="#Y"/><use transform="matrix(0.05,0,0,0.05,32.95,0)" xlink:href="#au"/></g><g id="y"><use transform="matrix(0.05,0,0,0.05,0,0)" xlink:href="#V"/><use transform="matrix(0.05,0,0,0.05,9,0)" xlink:href="#aB"/><use transform="matrix(0.05,0,0,0.05,18,0)" xlink:href="#ac"/><use transform="matrix(0.05,0,0,0.05,21.95,0)" xlink:href="#au"/><use transform="matrix(0.05,0,0,0.05,25.899999999999995,0)" xlink:href="#au"/><use transform="matrix(0.05,0,0,0.05,29.849999999999994,0)" xlink:href="#ax"/><use transform="matrix(0.05,0,0,0.05,39.849999999999994,0)" xlink:href="#X"/><use transform="matrix(0.05,0,0,0.05,44.849999999999994,0)" xlink:href="#W"/><use transform="matrix(0.05,0,0,0.05,53.849999999999994,0)" xlink:href="#aA"/><use transform="matrix(0.05,0,0,0.05,63.849999999999994,0)" xlink:href="#Y"/></g><path d="M206 0h-36l-40-164L89 0H53L-1-190h32L70-26l43-164h34l41 164 42-164h31" id="aC"/><g id="z"><use transform="matrix(0.05,0,0,0.05,0,0)" xlink:href="#aB"/><use transform="matrix(0.05,0,0,0.05,9,0)" xlink:href="#ae"/><use transform="matrix(0.05,0,0,0.05,19,0)" xlink:href="#ap"/><use transform="matrix(0.05,0,0,0.05,29,0)" xlink:href="#aC"/><use transform="matrix(0.05,0,0,0.05,41.95,0)" xlink:href="#au"/><use transform="matrix(0.05,0,0,0.05,45.900000000000006,0)" xlink:href="#Y"/><use transform="matrix(0.05,0,0,0.05,55.900000000000006,0)" xlink:href="#ad"/><use transform="matrix(0.05,0,0,0.05,65.9,0)" xlink:href="#av"/><use transform="matrix(0.05,0,0,0.05,75.9,0)" xlink:href="#Y"/><use transform="matrix(0.05,0,0,0.05,85.9,0)" xlink:href="#ax"/><use transform="matrix(0.05,0,0,0.05,95.9,0)" xlink:href="#au"/><use transform="matrix(0.05,0,0,0.05,99.85000000000001,0)" xlink:href="#Y"/><use transform="matrix(0.05,0,0,0.05,109.85000000000001,0)" xlink:href="#ah"/><use transform="matrix(0.05,0,0,0.05,118.85000000000001,0)" xlink:href="#Y"/><use transform="matrix(0.05,0,0,0.05,128.85000000000002,0)" xlink:href="#au"/></g><path d="M30 0v-248h33v221h125V0H30" id="aD"/><g id="A"><use transform="matrix(0.05,0,0,0.05,0,0)" xlink:href="#aD"/><use transform="matrix(0.05,0,0,0.05,10,0)" xlink:href="#ac"/><use transform="matrix(0.05,0,0,0.05,13.949999999999998,0)" xlink:href="#ae"/><use transform="matrix(0.05,0,0,0.05,23.95,0)" xlink:href="#aB"/></g><g id="B"><use transform="matrix(0.05,0,0,0.05,0,0)" xlink:href="#X"/><use transform="matrix(0.05,0,0,0.05,5,0)" xlink:href="#ap"/></g><g id="C"><use transform="matrix(0.05,0,0,0.05,0,0)" xlink:href="#X"/><use transform="matrix(0.05,0,0,0.05,5,0)" xlink:href="#Y"/><use transform="matrix(0.05,0,0,0.05,15,0)" xlink:href="#at"/><use transform="matrix(0.05,0,0,0.05,24,0)" xlink:href="#X"/><use transform="matrix(0.05,0,0,0.05,29,0)" xlink:href="#ax"/><use transform="matrix(0.05,0,0,0.05,39,0)" xlink:href="#X"/><use transform="matrix(0.05,0,0,0.05,44,0)" xlink:href="#ai"/><use transform="matrix(0.05,0,0,0.05,49.95,0)" xlink:href="#ag"/><use transform="matrix(0.05,0,0,0.05,59.95,0)" xlink:href="#ae"/><use transform="matrix(0.05,0,0,0.05,69.95,0)" xlink:href="#V"/><use transform="matrix(0.05,0,0,0.05,78.95,0)" xlink:href="#au"/><use transform="matrix(0.05,0,0,0.05,82.9,0)" xlink:href="#ag"/><use transform="matrix(0.05,0,0,0.05,92.9,0)" xlink:href="#X"/><use transform="matrix(0.05,0,0,0.05,97.9,0)" xlink:href="#ac"/><use transform="matrix(0.05,0,0,0.05,101.85000000000001,0)" xlink:href="#ap"/><use transform="matrix(0.05,0,0,0.05,111.85000000000001,0)" xlink:href="#ae"/><use transform="matrix(0.05,0,0,0.05,121.85000000000001,0)" xlink:href="#V"/></g><g id="D"><use transform="matrix(0.05,0,0,0.05,0,0)" xlink:href="#af"/><use transform="matrix(0.05,0,0,0.05,12,0)" xlink:href="#au"/><use transform="matrix(0.05,0,0,0.05,15.949999999999998,0)" xlink:href="#au"/></g><g id="E"><use transform="matrix(0.05,0,0,0.05,0,0)" xlink:href="#ah"/><use transform="matrix(0.05,0,0,0.05,9,0)" xlink:href="#ag"/><use transform="matrix(0.05,0,0,0.05,19,0)" xlink:href="#au"/><use transform="matrix(0.05,0,0,0.05,22.95,0)" xlink:href="#aq"/><use transform="matrix(0.05,0,0,0.05,32.95,0)" xlink:href="#Y"/><use transform="matrix(0.05,0,0,0.05,42.95,0)" xlink:href="#V"/></g><g id="F"><use transform="matrix(0.05,0,0,0.05,0,0)" xlink:href="#Z"/><use transform="matrix(0.05,0,0,0.05,14.950000000000001,0)" xlink:href="#ag"/><use transform="matrix(0.05,0,0,0.05,24.950000000000003,0)" xlink:href="#W"/><use transform="matrix(0.05,0,0,0.05,33.95,0)" xlink:href="#ar"/><use transform="matrix(0.05,0,0,0.05,43.95,0)" xlink:href="#Y"/></g><g id="G"><use transform="matrix(0.05,0,0,0.05,0,0)" xlink:href="#V"/><use transform="matrix(0.05,0,0,0.05,9,0)" xlink:href="#X"/><use transform="matrix(0.05,0,0,0.05,14,0)" xlink:href="#ap"/><use transform="matrix(0.05,0,0,0.05,24,0)" xlink:href="#ai"/><use transform="matrix(0.05,0,0,0.05,29.950000000000003,0)" xlink:href="#Y"/><use transform="matrix(0.05,0,0,0.05,39.95,0)" xlink:href="#ad"/></g><path d="M0 4l72-265h28L28 4H0" id="aE"/><g id="H"><use transform="matrix(0.05,0,0,0.05,0,0)" xlink:href="#aC"/><use transform="matrix(0.05,0,0,0.05,12.950000000000001,0)" xlink:href="#aE"/></g><g id="I"><use transform="matrix(0.05,0,0,0.05,0,0)" xlink:href="#Z"/><use transform="matrix(0.05,0,0,0.05,14.950000000000001,0)" xlink:href="#aq"/><use transform="matrix(0.05,0,0,0.05,24.950000000000003,0)" xlink:href="#au"/><use transform="matrix(0.05,0,0,0.05,28.900000000000002,0)" xlink:href="#X"/><use transform="matrix(0.05,0,0,0.05,33.900000000000006,0)" xlink:href="#ac"/></g><g id="J"><use transform="matrix(0.05,0,0,0.05,0,0)" xlink:href="#au"/><use transform="matrix(0.05,0,0,0.05,3.95,0)" xlink:href="#ag"/><use transform="matrix(0.05,0,0,0.05,13.949999999999998,0)" xlink:href="#ae"/><use transform="matrix(0.05,0,0,0.05,23.95,0)" xlink:href="#av"/><use transform="matrix(0.05,0,0,0.05,33.95,0)" xlink:href="#aq"/><use transform="matrix(0.05,0,0,0.05,43.95,0)" xlink:href="#ag"/><use transform="matrix(0.05,0,0,0.05,53.95,0)" xlink:href="#av"/><use transform="matrix(0.05,0,0,0.05,63.95,0)" xlink:href="#Y"/></g><g id="K"><use transform="matrix(0.05,0,0,0.05,0,0)" xlink:href="#V"/><use transform="matrix(0.05,0,0,0.05,9,0)" xlink:href="#aq"/><use transform="matrix(0.05,0,0,0.05,19,0)" xlink:href="#aA"/><use transform="matrix(0.05,0,0,0.05,29,0)" xlink:href="#aA"/><use transform="matrix(0.05,0,0,0.05,39,0)" xlink:href="#ap"/><use transform="matrix(0.05,0,0,0.05,49,0)" xlink:href="#ai"/><use transform="matrix(0.05,0,0,0.05,54.95,0)" xlink:href="#X"/></g><g id="L"><use transform="matrix(0.05,0,0,0.05,0,0)" xlink:href="#ah"/><use transform="matrix(0.05,0,0,0.05,9,0)" xlink:href="#ac"/><use transform="matrix(0.05,0,0,0.05,12.949999999999998,0)" xlink:href="#X"/><use transform="matrix(0.05,0,0,0.05,17.95,0)" xlink:href="#ag"/><use transform="matrix(0.05,0,0,0.05,27.950000000000003,0)" xlink:href="#ax"/><use transform="matrix(0.05,0,0,0.05,37.95,0)" xlink:href="#X"/><use transform="matrix(0.05,0,0,0.05,42.95,0)" xlink:href="#W"/><use transform="matrix(0.05,0,0,0.05,51.95,0)" xlink:href="#aA"/><use transform="matrix(0.05,0,0,0.05,61.95,0)" xlink:href="#Y"/></g><g id="M"><use transform="matrix(0.05,0,0,0.05,0,0)" xlink:href="#V"/><use transform="matrix(0.05,0,0,0.05,9,0)" xlink:href="#aB"/><use transform="matrix(0.05,0,0,0.05,18,0)" xlink:href="#ac"/><use transform="matrix(0.05,0,0,0.05,21.95,0)" xlink:href="#au"/><use transform="matrix(0.05,0,0,0.05,25.899999999999995,0)" xlink:href="#au"/><use transform="matrix(0.05,0,0,0.05,29.849999999999994,0)" xlink:href="#ax"/><use transform="matrix(0.05,0,0,0.05,39.849999999999994,0)" xlink:href="#X"/><use transform="matrix(0.05,0,0,0.05,44.849999999999994,0)" xlink:href="#W"/><use transform="matrix(0.05,0,0,0.05,53.849999999999994,0)" xlink:href="#aA"/><use transform="matrix(0.05,0,0,0.05,63.849999999999994,0)" xlink:href="#Y"/></g><g id="N"><use transform="matrix(0.05,0,0,0.05,0,0)" xlink:href="#ag"/><use transform="matrix(0.05,0,0,0.05,10,0)" xlink:href="#ae"/><use transform="matrix(0.05,0,0,0.05,20,0)" xlink:href="#ad"/></g><g id="O"><use transform="matrix(0.05,0,0,0.05,0,0)" xlink:href="#ah"/><use transform="matrix(0.05,0,0,0.05,9,0)" xlink:href="#ac"/><use transform="matrix(0.05,0,0,0.05,12.949999999999998,0)" xlink:href="#X"/><use transform="matrix(0.05,0,0,0.05,17.95,0)" xlink:href="#ag"/><use transform="matrix(0.05,0,0,0.05,27.950000000000003,0)" xlink:href="#ax"/><use transform="matrix(0.05,0,0,0.05,37.95,0)" xlink:href="#Y"/><use transform="matrix(0.05,0,0,0.05,47.95,0)" xlink:href="#au"/><use transform="matrix(0.05,0,0,0.05,51.900000000000006,0)" xlink:href="#Y"/><use transform="matrix(0.05,0,0,0.05,61.900000000000006,0)" xlink:href="#Z"/><use transform="matrix(0.05,0,0,0.05,76.85000000000001,0)" xlink:href="#Y"/><use transform="matrix(0.05,0,0,0.05,86.85000000000001,0)" xlink:href="#ae"/><use transform="matrix(0.05,0,0,0.05,96.85000000000001,0)" xlink:href="#X"/><use transform="matrix(0.05,0,0,0.05,101.85000000000001,0)" xlink:href="#V"/></g><g id="P"><use transform="matrix(0.05,0,0,0.05,0,0)" xlink:href="#Z"/><use transform="matrix(0.05,0,0,0.05,14.950000000000001,0)" xlink:href="#ag"/><use transform="matrix(0.05,0,0,0.05,24.950000000000003,0)" xlink:href="#W"/></g><g id="Q"><use transform="matrix(0.05,0,0,0.05,0,0)" xlink:href="#ar"/><use transform="matrix(0.05,0,0,0.05,10,0)" xlink:href="#Y"/></g><g id="R"><use transform="matrix(0.05,0,0,0.05,0,0)" xlink:href="#ar"/><use transform="matrix(0.05,0,0,0.05,10,0)" xlink:href="#ap"/><use transform="matrix(0.05,0,0,0.05,20,0)" xlink:href="#X"/><use transform="matrix(0.05,0,0,0.05,25,0)" xlink:href="#ak"/></g><g id="S"><use transform="matrix(0.05,0,0,0.05,0,0)" xlink:href="#au"/><use transform="matrix(0.05,0,0,0.05,3.95,0)" xlink:href="#ac"/><use transform="matrix(0.05,0,0,0.05,7.9,0)" xlink:href="#ae"/><use transform="matrix(0.05,0,0,0.05,17.9,0)" xlink:href="#aB"/><use transform="matrix(0.05,0,0,0.05,26.899999999999995,0)" xlink:href="#Y"/><use transform="matrix(0.05,0,0,0.05,36.9,0)" xlink:href="#ad"/></g><use transform="matrix(0.05,0,0,0.05,0,0)" xlink:href="#ag" id="T"/><g id="U"><use transform="matrix(0.05,0,0,0.05,0,0)" xlink:href="#ah"/><use transform="matrix(0.05,0,0,0.05,9,0)" xlink:href="#ac"/><use transform="matrix(0.05,0,0,0.05,12.949999999999998,0)" xlink:href="#X"/><use transform="matrix(0.05,0,0,0.05,17.95,0)" xlink:href="#ag"/><use transform="matrix(0.05,0,0,0.05,27.950000000000003,0)" xlink:href="#ax"/><use transform="matrix(0.05,0,0,0.05,37.95,0)" xlink:href="#X"/><use transform="matrix(0.05,0,0,0.05,42.95,0)" xlink:href="#W"/><use transform="matrix(0.05,0,0,0.05,51.95,0)" xlink:href="#aA"/><use transform="matrix(0.05,0,0,0.05,61.95,0)" xlink:href="#Y"/></g></defs></g></svg>